<?xml version="1.0" standalone="no"?>
<!DOCTYPE svg PUBLIC "-//W3C//DTD SVG 20010904//EN"
"http://www.w3.org/TR/2001/REC-SVG-20010904/DTD/svg10.dtd">
<svg xmlns="http://www.w3.org/2000/svg" xmlns:xlink="http://www.w3.org/1999/xlink"
    width="20.53cm" height="19.93cm" viewBox="0 0 582 565 ">
<title>SVG Picture created as rock-paper-scissors-ext-form </title>
<desc>Picture generated by wxSVG v0100 </desc>
<g style="fill:black; stroke:black; stroke-width:1">
</g>
<g style="fill:#FFFFFF; fill-opacity:1.00; stroke:#FF0000; stroke-opacity:1.00; stroke-linecap:round; stroke-linejoin:round; stroke-width:3" 
   transform="translate(0.00 0.00) scale(1.00 1.00)">
<polygon style="fill-rule:evenodd; " 
points="25,235
20,240
25,245
30,240
" /> 
 <text x="20" y="227" style="font-family:sans; font-weight:bold; font-style:normal; font-size:10pt; fill:#FF0000; fill-opacity:1.00; stroke:#FF0000; stroke-opacity:1.00; stroke-width:0;"  transform="rotate( -0.00 20 227 )  " >1</text> 
 <text x="25" y="263" style="font-family:sans; font-weight:bold; font-style:normal; font-size:10pt; fill:#FF0000; fill-opacity:1.00; stroke:#FF0000; stroke-opacity:1.00; stroke-width:0;"  transform="rotate( -0.00 25 263 )  " ></text> 
</g>
<g style="fill:#FFFFFF; fill-opacity:1.00; stroke:#FF0000; stroke-opacity:1.00; stroke-linecap:round; stroke-linejoin:round; stroke-width:4" 
   transform="translate(0.00 0.00) scale(1.00 1.00)">
<path d="M30 240 L90 90" /> 
<path d="M90 90 L215 90" /> 
</g>
<g style="fill:#FFFFFF; fill-opacity:1.00; stroke:#000000; stroke-opacity:1.00; stroke-linecap:round; stroke-linejoin:round; stroke-width:2" 
   transform="translate(0.00 0.00) scale(1.00 1.00)">
<path d="M30 240 L30 240" /> 
 <text x="93" y="83" style="font-family:sans; font-weight:bold; font-style:normal; font-size:10pt; fill:#FF0000; fill-opacity:1.00; stroke:#FF0000; stroke-opacity:1.00; stroke-width:0;"  transform="rotate( -0.00 93 83 )  " >rock</text> 
 <text x="93" y="107" style="font-family:sans; font-weight:bold; font-style:normal; font-size:10pt; fill:#FF0000; fill-opacity:1.00; stroke:#FF0000; stroke-opacity:1.00; stroke-width:0;"  transform="rotate( -0.00 93 107 )  " ></text> 
</g>
<g style="fill:#FFFFFF; fill-opacity:1.00; stroke:#0000FF; stroke-opacity:1.00; stroke-linecap:round; stroke-linejoin:round; stroke-width:3" 
   transform="translate(0.00 0.00) scale(1.00 1.00)">
<polygon style="fill-rule:evenodd; " 
points="220,85
215,90
220,95
225,90
" /> 
 <text x="215" y="77" style="font-family:sans; font-weight:bold; font-style:normal; font-size:10pt; fill:#0000FF; fill-opacity:1.00; stroke:#0000FF; stroke-opacity:1.00; stroke-width:0;"  transform="rotate( -0.00 215 77 )  " >2</text> 
 <text x="220" y="113" style="font-family:sans; font-weight:bold; font-style:normal; font-size:10pt; fill:#0000FF; fill-opacity:1.00; stroke:#0000FF; stroke-opacity:1.00; stroke-width:0;"  transform="rotate( -0.00 220 113 )  " ></text> 
</g>
<g style="fill:#FFFFFF; fill-opacity:1.00; stroke:#0000FF; stroke-opacity:1.00; stroke-linecap:round; stroke-linejoin:round; stroke-width:1" 
   transform="translate(0.00 0.00) scale(1.00 1.00)">
<path d="M215 90 L215 240" /> 
<path d="M225 90 L225 240" /> 
</g>
<g style="fill:#FFFFFF; fill-opacity:1.00; stroke:#0000FF; stroke-opacity:1.00; stroke-linecap:round; stroke-linejoin:round; stroke-width:4" 
   transform="translate(0.00 0.00) scale(1.00 1.00)">
<path d="M225 90 L285 40" /> 
<path d="M285 40 L410 40" /> 
</g>
<g style="fill:#FFFFFF; fill-opacity:1.00; stroke:#000000; stroke-opacity:1.00; stroke-linecap:round; stroke-linejoin:round; stroke-width:2" 
   transform="translate(0.00 0.00) scale(1.00 1.00)">
<path d="M225 90 L225 90" /> 
 <text x="288" y="33" style="font-family:sans; font-weight:bold; font-style:normal; font-size:10pt; fill:#0000FF; fill-opacity:1.00; stroke:#0000FF; stroke-opacity:1.00; stroke-width:0;"  transform="rotate( -0.00 288 33 )  " >rock</text> 
 <text x="288" y="57" style="font-family:sans; font-weight:bold; font-style:normal; font-size:10pt; fill:#0000FF; fill-opacity:1.00; stroke:#0000FF; stroke-opacity:1.00; stroke-width:0;"  transform="rotate( -0.00 288 57 )  " ></text> 
</g>
<g style="fill:#FFFFFF; fill-opacity:1.00; stroke:#000000; stroke-opacity:1.00; stroke-linecap:round; stroke-linejoin:round; stroke-width:3" 
   transform="translate(0.00 0.00) scale(1.00 1.00)">
 <rect x="410" y="35" width="10" height="10" rx="0.00"  /> 
 <text x="395" y="27" style="font-family:sans; font-weight:bold; font-style:normal; font-size:10pt; fill:#000000; fill-opacity:1.00; stroke:#000000; stroke-opacity:1.00; stroke-width:0;"  transform="rotate( -0.00 395 27 )  " >draw</text> 
 <text x="415" y="63" style="font-family:sans; font-weight:bold; font-style:normal; font-size:10pt; fill:#000000; fill-opacity:1.00; stroke:#000000; stroke-opacity:1.00; stroke-width:0;"  transform="rotate( -0.00 415 63 )  " ></text> 
 <text x="440" y="45" style="font-family:Sans; font-weight:bold; font-style:normal; font-size:9pt; fill:#FF0000; fill-opacity:1.00; stroke:#FF0000; stroke-opacity:1.00; stroke-width:0;"  transform="rotate( -0.00 440 45 )  " >0</text> 
 <text x="459" y="45" style="font-family:Sans; font-weight:bold; font-style:normal; font-size:9pt; fill:#0000FF; fill-opacity:1.00; stroke:#0000FF; stroke-opacity:1.00; stroke-width:0;"  transform="rotate( -0.00 459 45 )  " >0</text> 
</g>
<g style="fill:#FFFFFF; fill-opacity:1.00; stroke:#0000FF; stroke-opacity:1.00; stroke-linecap:round; stroke-linejoin:round; stroke-width:4" 
   transform="translate(0.00 0.00) scale(1.00 1.00)">
<path d="M225 90 L285 90" /> 
<path d="M285 90 L410 90" /> 
</g>
<g style="fill:#FFFFFF; fill-opacity:1.00; stroke:#000000; stroke-opacity:1.00; stroke-linecap:round; stroke-linejoin:round; stroke-width:2" 
   transform="translate(0.00 0.00) scale(1.00 1.00)">
<path d="M225 90 L225 90" /> 
 <text x="288" y="83" style="font-family:sans; font-weight:bold; font-style:normal; font-size:10pt; fill:#0000FF; fill-opacity:1.00; stroke:#0000FF; stroke-opacity:1.00; stroke-width:0;"  transform="rotate( -0.00 288 83 )  " >paper</text> 
 <text x="288" y="107" style="font-family:sans; font-weight:bold; font-style:normal; font-size:10pt; fill:#0000FF; fill-opacity:1.00; stroke:#0000FF; stroke-opacity:1.00; stroke-width:0;"  transform="rotate( -0.00 288 107 )  " ></text> 
</g>
<g style="fill:#FFFFFF; fill-opacity:1.00; stroke:#000000; stroke-opacity:1.00; stroke-linecap:round; stroke-linejoin:round; stroke-width:3" 
   transform="translate(0.00 0.00) scale(1.00 1.00)">
 <rect x="410" y="85" width="10" height="10" rx="0.00"  /> 
 <text x="389" y="77" style="font-family:sans; font-weight:bold; font-style:normal; font-size:10pt; fill:#000000; fill-opacity:1.00; stroke:#000000; stroke-opacity:1.00; stroke-width:0;"  transform="rotate( -0.00 389 77 )  " >2 wins</text> 
 <text x="415" y="113" style="font-family:sans; font-weight:bold; font-style:normal; font-size:10pt; fill:#000000; fill-opacity:1.00; stroke:#000000; stroke-opacity:1.00; stroke-width:0;"  transform="rotate( -0.00 415 113 )  " ></text> 
 <text x="440" y="95" style="font-family:Sans; font-weight:bold; font-style:normal; font-size:9pt; fill:#FF0000; fill-opacity:1.00; stroke:#FF0000; stroke-opacity:1.00; stroke-width:0;"  transform="rotate( -0.00 440 95 )  " >-1</text> 
 <text x="464" y="95" style="font-family:Sans; font-weight:bold; font-style:normal; font-size:9pt; fill:#0000FF; fill-opacity:1.00; stroke:#0000FF; stroke-opacity:1.00; stroke-width:0;"  transform="rotate( -0.00 464 95 )  " >1</text> 
</g>
<g style="fill:#FFFFFF; fill-opacity:1.00; stroke:#0000FF; stroke-opacity:1.00; stroke-linecap:round; stroke-linejoin:round; stroke-width:4" 
   transform="translate(0.00 0.00) scale(1.00 1.00)">
<path d="M225 90 L285 140" /> 
<path d="M285 140 L410 140" /> 
</g>
<g style="fill:#FFFFFF; fill-opacity:1.00; stroke:#000000; stroke-opacity:1.00; stroke-linecap:round; stroke-linejoin:round; stroke-width:2" 
   transform="translate(0.00 0.00) scale(1.00 1.00)">
<path d="M225 90 L225 90" /> 
 <text x="288" y="133" style="font-family:sans; font-weight:bold; font-style:normal; font-size:10pt; fill:#0000FF; fill-opacity:1.00; stroke:#0000FF; stroke-opacity:1.00; stroke-width:0;"  transform="rotate( -0.00 288 133 )  " >scissors</text> 
 <text x="288" y="157" style="font-family:sans; font-weight:bold; font-style:normal; font-size:10pt; fill:#0000FF; fill-opacity:1.00; stroke:#0000FF; stroke-opacity:1.00; stroke-width:0;"  transform="rotate( -0.00 288 157 )  " ></text> 
</g>
<g style="fill:#FFFFFF; fill-opacity:1.00; stroke:#000000; stroke-opacity:1.00; stroke-linecap:round; stroke-linejoin:round; stroke-width:3" 
   transform="translate(0.00 0.00) scale(1.00 1.00)">
 <rect x="410" y="135" width="10" height="10" rx="0.00"  /> 
 <text x="389" y="127" style="font-family:sans; font-weight:bold; font-style:normal; font-size:10pt; fill:#000000; fill-opacity:1.00; stroke:#000000; stroke-opacity:1.00; stroke-width:0;"  transform="rotate( -0.00 389 127 )  " >1 wins</text> 
 <text x="415" y="163" style="font-family:sans; font-weight:bold; font-style:normal; font-size:10pt; fill:#000000; fill-opacity:1.00; stroke:#000000; stroke-opacity:1.00; stroke-width:0;"  transform="rotate( -0.00 415 163 )  " ></text> 
 <text x="440" y="145" style="font-family:Sans; font-weight:bold; font-style:normal; font-size:9pt; fill:#FF0000; fill-opacity:1.00; stroke:#FF0000; stroke-opacity:1.00; stroke-width:0;"  transform="rotate( -0.00 440 145 )  " >1</text> 
 <text x="459" y="145" style="font-family:Sans; font-weight:bold; font-style:normal; font-size:9pt; fill:#0000FF; fill-opacity:1.00; stroke:#0000FF; stroke-opacity:1.00; stroke-width:0;"  transform="rotate( -0.00 459 145 )  " >-1</text> 
</g>
<g style="fill:#FFFFFF; fill-opacity:1.00; stroke:#FF0000; stroke-opacity:1.00; stroke-linecap:round; stroke-linejoin:round; stroke-width:4" 
   transform="translate(0.00 0.00) scale(1.00 1.00)">
<path d="M30 240 L90 240" /> 
<path d="M90 240 L215 240" /> 
</g>
<g style="fill:#FFFFFF; fill-opacity:1.00; stroke:#000000; stroke-opacity:1.00; stroke-linecap:round; stroke-linejoin:round; stroke-width:2" 
   transform="translate(0.00 0.00) scale(1.00 1.00)">
<path d="M30 240 L30 240" /> 
 <text x="93" y="233" style="font-family:sans; font-weight:bold; font-style:normal; font-size:10pt; fill:#FF0000; fill-opacity:1.00; stroke:#FF0000; stroke-opacity:1.00; stroke-width:0;"  transform="rotate( -0.00 93 233 )  " >paper</text> 
 <text x="93" y="257" style="font-family:sans; font-weight:bold; font-style:normal; font-size:10pt; fill:#FF0000; fill-opacity:1.00; stroke:#FF0000; stroke-opacity:1.00; stroke-width:0;"  transform="rotate( -0.00 93 257 )  " ></text> 
</g>
<g style="fill:#FFFFFF; fill-opacity:1.00; stroke:#0000FF; stroke-opacity:1.00; stroke-linecap:round; stroke-linejoin:round; stroke-width:3" 
   transform="translate(0.00 0.00) scale(1.00 1.00)">
<polygon style="fill-rule:evenodd; " 
points="220,235
215,240
220,245
225,240
" /> 
 <text x="215" y="227" style="font-family:sans; font-weight:bold; font-style:normal; font-size:10pt; fill:#0000FF; fill-opacity:1.00; stroke:#0000FF; stroke-opacity:1.00; stroke-width:0;"  transform="rotate( -0.00 215 227 )  " >2</text> 
 <text x="220" y="263" style="font-family:sans; font-weight:bold; font-style:normal; font-size:10pt; fill:#0000FF; fill-opacity:1.00; stroke:#0000FF; stroke-opacity:1.00; stroke-width:0;"  transform="rotate( -0.00 220 263 )  " ></text> 
</g>
<g style="fill:#FFFFFF; fill-opacity:1.00; stroke:#0000FF; stroke-opacity:1.00; stroke-linecap:round; stroke-linejoin:round; stroke-width:1" 
   transform="translate(0.00 0.00) scale(1.00 1.00)">
<path d="M215 240 L215 390" /> 
<path d="M225 240 L225 390" /> 
</g>
<g style="fill:#FFFFFF; fill-opacity:1.00; stroke:#0000FF; stroke-opacity:1.00; stroke-linecap:round; stroke-linejoin:round; stroke-width:4" 
   transform="translate(0.00 0.00) scale(1.00 1.00)">
<path d="M225 240 L285 190" /> 
<path d="M285 190 L410 190" /> 
</g>
<g style="fill:#FFFFFF; fill-opacity:1.00; stroke:#000000; stroke-opacity:1.00; stroke-linecap:round; stroke-linejoin:round; stroke-width:2" 
   transform="translate(0.00 0.00) scale(1.00 1.00)">
<path d="M225 240 L225 240" /> 
 <text x="288" y="183" style="font-family:sans; font-weight:bold; font-style:normal; font-size:10pt; fill:#0000FF; fill-opacity:1.00; stroke:#0000FF; stroke-opacity:1.00; stroke-width:0;"  transform="rotate( -0.00 288 183 )  " >rock</text> 
 <text x="288" y="207" style="font-family:sans; font-weight:bold; font-style:normal; font-size:10pt; fill:#0000FF; fill-opacity:1.00; stroke:#0000FF; stroke-opacity:1.00; stroke-width:0;"  transform="rotate( -0.00 288 207 )  " ></text> 
</g>
<g style="fill:#FFFFFF; fill-opacity:1.00; stroke:#000000; stroke-opacity:1.00; stroke-linecap:round; stroke-linejoin:round; stroke-width:3" 
   transform="translate(0.00 0.00) scale(1.00 1.00)">
 <rect x="410" y="185" width="10" height="10" rx="0.00"  /> 
 <text x="389" y="177" style="font-family:sans; font-weight:bold; font-style:normal; font-size:10pt; fill:#000000; fill-opacity:1.00; stroke:#000000; stroke-opacity:1.00; stroke-width:0;"  transform="rotate( -0.00 389 177 )  " >1 wins</text> 
 <text x="415" y="213" style="font-family:sans; font-weight:bold; font-style:normal; font-size:10pt; fill:#000000; fill-opacity:1.00; stroke:#000000; stroke-opacity:1.00; stroke-width:0;"  transform="rotate( -0.00 415 213 )  " ></text> 
 <text x="440" y="195" style="font-family:Sans; font-weight:bold; font-style:normal; font-size:9pt; fill:#FF0000; fill-opacity:1.00; stroke:#FF0000; stroke-opacity:1.00; stroke-width:0;"  transform="rotate( -0.00 440 195 )  " >1</text> 
 <text x="459" y="195" style="font-family:Sans; font-weight:bold; font-style:normal; font-size:9pt; fill:#0000FF; fill-opacity:1.00; stroke:#0000FF; stroke-opacity:1.00; stroke-width:0;"  transform="rotate( -0.00 459 195 )  " >-1</text> 
</g>
<g style="fill:#FFFFFF; fill-opacity:1.00; stroke:#0000FF; stroke-opacity:1.00; stroke-linecap:round; stroke-linejoin:round; stroke-width:4" 
   transform="translate(0.00 0.00) scale(1.00 1.00)">
<path d="M225 240 L285 240" /> 
<path d="M285 240 L410 240" /> 
</g>
<g style="fill:#FFFFFF; fill-opacity:1.00; stroke:#000000; stroke-opacity:1.00; stroke-linecap:round; stroke-linejoin:round; stroke-width:2" 
   transform="translate(0.00 0.00) scale(1.00 1.00)">
<path d="M225 240 L225 240" /> 
 <text x="288" y="233" style="font-family:sans; font-weight:bold; font-style:normal; font-size:10pt; fill:#0000FF; fill-opacity:1.00; stroke:#0000FF; stroke-opacity:1.00; stroke-width:0;"  transform="rotate( -0.00 288 233 )  " >paper</text> 
 <text x="288" y="257" style="font-family:sans; font-weight:bold; font-style:normal; font-size:10pt; fill:#0000FF; fill-opacity:1.00; stroke:#0000FF; stroke-opacity:1.00; stroke-width:0;"  transform="rotate( -0.00 288 257 )  " ></text> 
</g>
<g style="fill:#FFFFFF; fill-opacity:1.00; stroke:#000000; stroke-opacity:1.00; stroke-linecap:round; stroke-linejoin:round; stroke-width:3" 
   transform="translate(0.00 0.00) scale(1.00 1.00)">
 <rect x="410" y="235" width="10" height="10" rx="0.00"  /> 
 <text x="395" y="227" style="font-family:sans; font-weight:bold; font-style:normal; font-size:10pt; fill:#000000; fill-opacity:1.00; stroke:#000000; stroke-opacity:1.00; stroke-width:0;"  transform="rotate( -0.00 395 227 )  " >draw</text> 
 <text x="415" y="263" style="font-family:sans; font-weight:bold; font-style:normal; font-size:10pt; fill:#000000; fill-opacity:1.00; stroke:#000000; stroke-opacity:1.00; stroke-width:0;"  transform="rotate( -0.00 415 263 )  " ></text> 
 <text x="440" y="245" style="font-family:Sans; font-weight:bold; font-style:normal; font-size:9pt; fill:#FF0000; fill-opacity:1.00; stroke:#FF0000; stroke-opacity:1.00; stroke-width:0;"  transform="rotate( -0.00 440 245 )  " >0</text> 
 <text x="459" y="245" style="font-family:Sans; font-weight:bold; font-style:normal; font-size:9pt; fill:#0000FF; fill-opacity:1.00; stroke:#0000FF; stroke-opacity:1.00; stroke-width:0;"  transform="rotate( -0.00 459 245 )  " >0</text> 
</g>
<g style="fill:#FFFFFF; fill-opacity:1.00; stroke:#0000FF; stroke-opacity:1.00; stroke-linecap:round; stroke-linejoin:round; stroke-width:4" 
   transform="translate(0.00 0.00) scale(1.00 1.00)">
<path d="M225 240 L285 290" /> 
<path d="M285 290 L410 290" /> 
</g>
<g style="fill:#FFFFFF; fill-opacity:1.00; stroke:#000000; stroke-opacity:1.00; stroke-linecap:round; stroke-linejoin:round; stroke-width:2" 
   transform="translate(0.00 0.00) scale(1.00 1.00)">
<path d="M225 240 L225 240" /> 
 <text x="288" y="283" style="font-family:sans; font-weight:bold; font-style:normal; font-size:10pt; fill:#0000FF; fill-opacity:1.00; stroke:#0000FF; stroke-opacity:1.00; stroke-width:0;"  transform="rotate( -0.00 288 283 )  " >scissors</text> 
 <text x="288" y="307" style="font-family:sans; font-weight:bold; font-style:normal; font-size:10pt; fill:#0000FF; fill-opacity:1.00; stroke:#0000FF; stroke-opacity:1.00; stroke-width:0;"  transform="rotate( -0.00 288 307 )  " ></text> 
</g>
<g style="fill:#FFFFFF; fill-opacity:1.00; stroke:#000000; stroke-opacity:1.00; stroke-linecap:round; stroke-linejoin:round; stroke-width:3" 
   transform="translate(0.00 0.00) scale(1.00 1.00)">
 <rect x="410" y="285" width="10" height="10" rx="0.00"  /> 
 <text x="389" y="277" style="font-family:sans; font-weight:bold; font-style:normal; font-size:10pt; fill:#000000; fill-opacity:1.00; stroke:#000000; stroke-opacity:1.00; stroke-width:0;"  transform="rotate( -0.00 389 277 )  " >2 wins</text> 
 <text x="415" y="313" style="font-family:sans; font-weight:bold; font-style:normal; font-size:10pt; fill:#000000; fill-opacity:1.00; stroke:#000000; stroke-opacity:1.00; stroke-width:0;"  transform="rotate( -0.00 415 313 )  " ></text> 
 <text x="440" y="295" style="font-family:Sans; font-weight:bold; font-style:normal; font-size:9pt; fill:#FF0000; fill-opacity:1.00; stroke:#FF0000; stroke-opacity:1.00; stroke-width:0;"  transform="rotate( -0.00 440 295 )  " >-1</text> 
 <text x="464" y="295" style="font-family:Sans; font-weight:bold; font-style:normal; font-size:9pt; fill:#0000FF; fill-opacity:1.00; stroke:#0000FF; stroke-opacity:1.00; stroke-width:0;"  transform="rotate( -0.00 464 295 )  " >1</text> 
</g>
<g style="fill:#FFFFFF; fill-opacity:1.00; stroke:#FF0000; stroke-opacity:1.00; stroke-linecap:round; stroke-linejoin:round; stroke-width:4" 
   transform="translate(0.00 0.00) scale(1.00 1.00)">
<path d="M30 240 L90 390" /> 
<path d="M90 390 L215 390" /> 
</g>
<g style="fill:#FFFFFF; fill-opacity:1.00; stroke:#000000; stroke-opacity:1.00; stroke-linecap:round; stroke-linejoin:round; stroke-width:2" 
   transform="translate(0.00 0.00) scale(1.00 1.00)">
<path d="M30 240 L30 240" /> 
 <text x="93" y="383" style="font-family:sans; font-weight:bold; font-style:normal; font-size:10pt; fill:#FF0000; fill-opacity:1.00; stroke:#FF0000; stroke-opacity:1.00; stroke-width:0;"  transform="rotate( -0.00 93 383 )  " >scissors</text> 
 <text x="93" y="407" style="font-family:sans; font-weight:bold; font-style:normal; font-size:10pt; fill:#FF0000; fill-opacity:1.00; stroke:#FF0000; stroke-opacity:1.00; stroke-width:0;"  transform="rotate( -0.00 93 407 )  " ></text> 
</g>
<g style="fill:#FFFFFF; fill-opacity:1.00; stroke:#0000FF; stroke-opacity:1.00; stroke-linecap:round; stroke-linejoin:round; stroke-width:3" 
   transform="translate(0.00 0.00) scale(1.00 1.00)">
<polygon style="fill-rule:evenodd; " 
points="220,385
215,390
220,395
225,390
" /> 
 <text x="215" y="377" style="font-family:sans; font-weight:bold; font-style:normal; font-size:10pt; fill:#0000FF; fill-opacity:1.00; stroke:#0000FF; stroke-opacity:1.00; stroke-width:0;"  transform="rotate( -0.00 215 377 )  " >2</text> 
 <text x="220" y="413" style="font-family:sans; font-weight:bold; font-style:normal; font-size:10pt; fill:#0000FF; fill-opacity:1.00; stroke:#0000FF; stroke-opacity:1.00; stroke-width:0;"  transform="rotate( -0.00 220 413 )  " ></text> 
</g>
<g style="fill:#FFFFFF; fill-opacity:1.00; stroke:#0000FF; stroke-opacity:1.00; stroke-linecap:round; stroke-linejoin:round; stroke-width:4" 
   transform="translate(0.00 0.00) scale(1.00 1.00)">
<path d="M225 390 L285 340" /> 
<path d="M285 340 L410 340" /> 
</g>
<g style="fill:#FFFFFF; fill-opacity:1.00; stroke:#000000; stroke-opacity:1.00; stroke-linecap:round; stroke-linejoin:round; stroke-width:2" 
   transform="translate(0.00 0.00) scale(1.00 1.00)">
<path d="M225 390 L225 390" /> 
 <text x="288" y="333" style="font-family:sans; font-weight:bold; font-style:normal; font-size:10pt; fill:#0000FF; fill-opacity:1.00; stroke:#0000FF; stroke-opacity:1.00; stroke-width:0;"  transform="rotate( -0.00 288 333 )  " >rock</text> 
 <text x="288" y="357" style="font-family:sans; font-weight:bold; font-style:normal; font-size:10pt; fill:#0000FF; fill-opacity:1.00; stroke:#0000FF; stroke-opacity:1.00; stroke-width:0;"  transform="rotate( -0.00 288 357 )  " ></text> 
</g>
<g style="fill:#FFFFFF; fill-opacity:1.00; stroke:#000000; stroke-opacity:1.00; stroke-linecap:round; stroke-linejoin:round; stroke-width:3" 
   transform="translate(0.00 0.00) scale(1.00 1.00)">
 <rect x="410" y="335" width="10" height="10" rx="0.00"  /> 
 <text x="389" y="327" style="font-family:sans; font-weight:bold; font-style:normal; font-size:10pt; fill:#000000; fill-opacity:1.00; stroke:#000000; stroke-opacity:1.00; stroke-width:0;"  transform="rotate( -0.00 389 327 )  " >2 wins</text> 
 <text x="415" y="363" style="font-family:sans; font-weight:bold; font-style:normal; font-size:10pt; fill:#000000; fill-opacity:1.00; stroke:#000000; stroke-opacity:1.00; stroke-width:0;"  transform="rotate( -0.00 415 363 )  " ></text> 
 <text x="440" y="345" style="font-family:Sans; font-weight:bold; font-style:normal; font-size:9pt; fill:#FF0000; fill-opacity:1.00; stroke:#FF0000; stroke-opacity:1.00; stroke-width:0;"  transform="rotate( -0.00 440 345 )  " >-1</text> 
 <text x="464" y="345" style="font-family:Sans; font-weight:bold; font-style:normal; font-size:9pt; fill:#0000FF; fill-opacity:1.00; stroke:#0000FF; stroke-opacity:1.00; stroke-width:0;"  transform="rotate( -0.00 464 345 )  " >1</text> 
</g>
<g style="fill:#FFFFFF; fill-opacity:1.00; stroke:#0000FF; stroke-opacity:1.00; stroke-linecap:round; stroke-linejoin:round; stroke-width:4" 
   transform="translate(0.00 0.00) scale(1.00 1.00)">
<path d="M225 390 L285 390" /> 
<path d="M285 390 L410 390" /> 
</g>
<g style="fill:#FFFFFF; fill-opacity:1.00; stroke:#000000; stroke-opacity:1.00; stroke-linecap:round; stroke-linejoin:round; stroke-width:2" 
   transform="translate(0.00 0.00) scale(1.00 1.00)">
<path d="M225 390 L225 390" /> 
 <text x="288" y="383" style="font-family:sans; font-weight:bold; font-style:normal; font-size:10pt; fill:#0000FF; fill-opacity:1.00; stroke:#0000FF; stroke-opacity:1.00; stroke-width:0;"  transform="rotate( -0.00 288 383 )  " >paper</text> 
 <text x="288" y="407" style="font-family:sans; font-weight:bold; font-style:normal; font-size:10pt; fill:#0000FF; fill-opacity:1.00; stroke:#0000FF; stroke-opacity:1.00; stroke-width:0;"  transform="rotate( -0.00 288 407 )  " ></text> 
</g>
<g style="fill:#FFFFFF; fill-opacity:1.00; stroke:#000000; stroke-opacity:1.00; stroke-linecap:round; stroke-linejoin:round; stroke-width:3" 
   transform="translate(0.00 0.00) scale(1.00 1.00)">
 <rect x="410" y="385" width="10" height="10" rx="0.00"  /> 
 <text x="389" y="377" style="font-family:sans; font-weight:bold; font-style:normal; font-size:10pt; fill:#000000; fill-opacity:1.00; stroke:#000000; stroke-opacity:1.00; stroke-width:0;"  transform="rotate( -0.00 389 377 )  " >1 wins</text> 
 <text x="415" y="413" style="font-family:sans; font-weight:bold; font-style:normal; font-size:10pt; fill:#000000; fill-opacity:1.00; stroke:#000000; stroke-opacity:1.00; stroke-width:0;"  transform="rotate( -0.00 415 413 )  " ></text> 
 <text x="440" y="395" style="font-family:Sans; font-weight:bold; font-style:normal; font-size:9pt; fill:#FF0000; fill-opacity:1.00; stroke:#FF0000; stroke-opacity:1.00; stroke-width:0;"  transform="rotate( -0.00 440 395 )  " >1</text> 
 <text x="459" y="395" style="font-family:Sans; font-weight:bold; font-style:normal; font-size:9pt; fill:#0000FF; fill-opacity:1.00; stroke:#0000FF; stroke-opacity:1.00; stroke-width:0;"  transform="rotate( -0.00 459 395 )  " >-1</text> 
</g>
<g style="fill:#FFFFFF; fill-opacity:1.00; stroke:#0000FF; stroke-opacity:1.00; stroke-linecap:round; stroke-linejoin:round; stroke-width:4" 
   transform="translate(0.00 0.00) scale(1.00 1.00)">
<path d="M225 390 L285 440" /> 
<path d="M285 440 L410 440" /> 
</g>
<g style="fill:#FFFFFF; fill-opacity:1.00; stroke:#000000; stroke-opacity:1.00; stroke-linecap:round; stroke-linejoin:round; stroke-width:2" 
   transform="translate(0.00 0.00) scale(1.00 1.00)">
<path d="M225 390 L225 390" /> 
 <text x="288" y="433" style="font-family:sans; font-weight:bold; font-style:normal; font-size:10pt; fill:#0000FF; fill-opacity:1.00; stroke:#0000FF; stroke-opacity:1.00; stroke-width:0;"  transform="rotate( -0.00 288 433 )  " >scissors</text> 
 <text x="288" y="457" style="font-family:sans; font-weight:bold; font-style:normal; font-size:10pt; fill:#0000FF; fill-opacity:1.00; stroke:#0000FF; stroke-opacity:1.00; stroke-width:0;"  transform="rotate( -0.00 288 457 )  " ></text> 
</g>
<g style="fill:#FFFFFF; fill-opacity:1.00; stroke:#000000; stroke-opacity:1.00; stroke-linecap:round; stroke-linejoin:round; stroke-width:3" 
   transform="translate(0.00 0.00) scale(1.00 1.00)">
 <rect x="410" y="435" width="10" height="10" rx="0.00"  /> 
 <text x="395" y="427" style="font-family:sans; font-weight:bold; font-style:normal; font-size:10pt; fill:#000000; fill-opacity:1.00; stroke:#000000; stroke-opacity:1.00; stroke-width:0;"  transform="rotate( -0.00 395 427 )  " >draw</text> 
 <text x="415" y="463" style="font-family:sans; font-weight:bold; font-style:normal; font-size:10pt; fill:#000000; fill-opacity:1.00; stroke:#000000; stroke-opacity:1.00; stroke-width:0;"  transform="rotate( -0.00 415 463 )  " ></text> 
 <text x="440" y="445" style="font-family:Sans; font-weight:bold; font-style:normal; font-size:9pt; fill:#FF0000; fill-opacity:1.00; stroke:#FF0000; stroke-opacity:1.00; stroke-width:0;"  transform="rotate( -0.00 440 445 )  " >0</text> 
 <text x="459" y="445" style="font-family:Sans; font-weight:bold; font-style:normal; font-size:9pt; fill:#0000FF; fill-opacity:1.00; stroke:#0000FF; stroke-opacity:1.00; stroke-width:0;"  transform="rotate( -0.00 459 445 )  " >0</text> 
</g> 
</svg> 
